<svg width="102" height="70" viewBox="0 0 102 70" fill="none" xmlns="http://www.w3.org/2000/svg">
<path d="M43.5651 0.00028571V8.9079H35.3236V32.1113H26.3953V8.9079H10.3283C10.3987 9.00034 13.8613 12.6123 20.716 19.7436C21.615 21.0152 22.1035 22.5313 22.116 24.0885C22.1411 26.1863 21.3393 28.2097 19.884 29.7209C19.2064 30.4784 18.3756 31.0832 17.4466 31.4953C16.5176 31.9074 15.5116 32.1174 14.4953 32.1113H0V23.1839H11.9594L1.59151 12.3877C0.61803 11.1463 0.11719 9.59946 0.178302 8.02308C0.143229 5.92916 0.9386 3.90651 2.39057 2.39722C3.06504 1.63554 3.89511 1.02742 4.82472 0.61392C5.75433 0.200421 6.76184 -0.00883301 7.77925 0.00028571H43.5651Z" fill="#262835"/>
<path d="M60.6359 0.000305176L72.9123 32.1113H62.65L61.4283 28.9418H49.0397L47.8444 32.1113H37.1396L49.8651 0.000305176H60.6359ZM58.2849 20.569L55.2472 12.5462L52.2425 20.569H58.2849Z" fill="#262835"/>
<path d="M101.011 11.9454C101.028 14.2953 100.338 16.596 99.03 18.5485C97.7328 20.4792 95.9854 22.0656 93.9384 23.1707H100.78V32.0981H88.246L82.963 26.36V32.0981H74.0347V0.000300259H89.2233C90.7878 -0.00839883 92.3376 0.301503 93.7783 0.911119C95.219 1.52074 96.5206 2.4173 97.6035 3.54618C98.7121 4.64151 99.5859 5.95111 100.172 7.39514C100.758 8.83916 101.043 10.3874 101.011 11.9454V11.9454ZM88.3781 14.5866C88.9396 14.5558 89.468 14.3111 89.8546 13.9027C90.2412 13.4943 90.4567 12.9534 90.4567 12.3911C90.4567 11.8287 90.2412 11.2878 89.8546 10.8794C89.468 10.4711 88.9396 10.2263 88.3781 10.1955H82.9498V14.5866H88.3781Z" fill="#262835"/>
<path d="M31.9623 33.7885H43.2811L34.4585 69.9934H23.3113L21.4887 56.5032L18.1868 69.9934H8.28113L0 33.7885H10.817L13.8679 47.1334L16.9387 33.7885H25.8274L28.8849 47.1334L31.9623 33.7885Z" fill="#262835"/>
<path d="M44.5293 33.7885H54.6001V69.9934H44.5293V33.7885Z" fill="#262835"/>
<path d="M89.3623 33.7885L73.9425 54.2581L78.8425 59.9302H100.285V70H73.9689L65.9189 60.7556V70H55.8481V33.7885H65.9189V47.9323L76.3397 33.7885H89.3623Z" fill="#262835"/>
<path d="M90.6104 33.7885H100.681V69.9934H90.6104V33.7885Z" fill="#262835"/>
</svg>
