<svg width="159" height="70" viewBox="0 0 159 70" fill="none" xmlns="http://www.w3.org/2000/svg">
<g clip-path="url(#clip0_5_167)">
<path d="M153.129 0H5.36175C2.40054 0 0 2.40964 0 5.38208V64.6179C0 67.5904 2.40054 70 5.36175 70H153.129C156.09 70 158.491 67.5904 158.491 64.6179V5.38208C158.491 2.40964 156.09 0 153.129 0Z" fill="#F5F5F5"/>
<path d="M23.9799 26.7189H47.2229L55.6767 47.9302V50.05C55.6767 50.05 50.5913 54.2962 47.2229 54.2962C43.5914 56.416 35.5981 56.4359 35.5981 56.4359C35.5981 56.4359 27.2693 56.1321 23.9799 54.2962C22.4602 54.2962 15.5261 51.5755 15.5261 50.05V47.9302L23.9799 26.7189Z" fill="#14161E"/>
<path d="M56.762 48.9934C56.762 45.9953 54.591 40.7783 52.4989 35.733C52.0253 34.5774 51.545 33.4151 51.1042 32.3123C51.1042 32.2396 51.0648 32.1802 51.0385 32.101V32.068C50.9924 31.9227 50.9529 31.7708 50.9069 31.6123C50.8885 31.5604 50.8731 31.5075 50.8608 31.4538C50.8213 31.3151 50.7753 31.1632 50.7358 31.0114L50.6963 30.8925L50.5385 30.2981L50.499 30.1595C50.4595 29.9944 50.4135 29.8293 50.3674 29.6576C50.3674 29.5981 50.3345 29.5387 50.3213 29.4793C50.2621 29.2613 50.2095 29.0434 50.1569 28.8189V28.7793C50.1108 28.5746 50.0582 28.3698 50.0122 28.1651C50.0007 28.1004 49.9853 28.0365 49.9661 27.9736C49.6956 26.861 49.5 25.7314 49.3806 24.5925C49.3711 24.4975 49.349 24.4042 49.3148 24.3151C49.287 23.9897 49.232 23.6672 49.1503 23.351C48.6135 20.7141 47.188 18.3433 45.1139 16.6378C43.0398 14.9323 40.4436 13.9961 37.7624 13.9868H33.5322C30.8507 13.9948 28.2538 14.9306 26.1794 16.6363C24.1051 18.3421 22.6799 20.7135 22.1443 23.351C22.0633 23.6676 22.0061 23.9899 21.9732 24.3151C21.9445 24.4054 21.9246 24.4983 21.914 24.5925C21.7913 25.731 21.5957 26.8604 21.3284 27.9736C21.3284 28.0397 21.2956 28.0991 21.2824 28.1651C21.2364 28.3698 21.1837 28.5746 21.1311 28.7793V28.8189C21.0785 29.0434 21.0192 29.2613 20.9666 29.4793C20.9666 29.5387 20.9666 29.5981 20.9206 29.6576C20.8745 29.8293 20.8285 29.9944 20.789 30.1595L20.7495 30.2981C20.6969 30.5029 20.6443 30.701 20.5851 30.8925C20.588 30.932 20.588 30.9718 20.5851 31.0114C20.5456 31.1698 20.4995 31.3151 20.4601 31.4604C20.4478 31.5119 20.4324 31.5626 20.414 31.6123C20.368 31.7708 20.3285 31.9227 20.2824 32.068V32.101L20.1508 32.5434C20.1508 32.5764 20.1509 32.6095 20.118 32.6425C20.0851 32.6755 20.0587 32.8472 20.0258 32.9397C20.0281 32.9572 20.0281 32.9749 20.0258 32.9925L19.9403 33.2566C19.9433 33.2741 19.9433 33.292 19.9403 33.3095L19.8943 33.4481C19.8927 33.4657 19.8927 33.4834 19.8943 33.501L22.2429 33.0915C22.4412 32.4817 22.6853 31.8878 22.9732 31.3151C24.5192 28.1057 26.5981 27.8415 27.6704 27.7557H28.3283C30.1271 27.8285 31.9031 28.185 33.5914 28.8123H37.8216C39.5131 28.1966 41.2874 27.8404 43.0846 27.7557H43.7425C44.8149 27.8415 46.7622 28.0198 48.4398 31.3151C48.5517 31.5264 48.6569 31.7642 48.7556 31.9755C48.8543 32.1868 48.8937 32.3123 48.9595 32.484C49.0253 32.6557 49.1043 32.8604 49.1701 33.0651C49.5977 34.1481 50.0714 35.2972 50.5713 36.4925C52.4858 41.1151 54.6634 46.3981 54.67 48.8812C54.67 48.9142 53.9134 53.167 43.9267 54.7321C41.1563 54.8799 38.3781 54.716 35.644 54.2434C32.5717 53.6953 29.5389 51.5557 27.1968 48.9604C26.5174 50.9237 25.4374 52.723 24.0258 54.2434C24.0258 56.5878 29.2296 57.4264 35.644 57.4264C41.8281 57.4264 46.874 56.6802 47.2359 54.4944C52.1108 53.6623 54.5121 52.3283 55.6765 51.133C56.293 50.5818 56.6805 49.8181 56.762 48.9934V48.9934Z" fill="#262835"/>
<path d="M40.907 29.9019C39.8236 29.8983 38.76 30.1932 37.832 30.7544C36.904 31.3157 36.1472 32.1218 35.644 33.0849L36.7032 36.2613C37.7953 37.3575 41.9663 37.3245 41.9663 37.3245C41.9663 37.3245 46.1899 37.4566 46.1899 35.2047C46.1899 32.9528 44.7425 29.9019 40.907 29.9019ZM30.3414 29.9019C26.5126 29.9019 25.0784 32.9462 25.0784 35.1849C25.0784 37.4236 29.3086 37.3047 29.3086 37.3047C29.3086 37.3047 33.4993 37.3047 34.5716 36.2415L35.6243 33.0651C35.1209 32.0993 34.3608 31.2924 33.4282 30.734C32.4957 30.1756 31.4272 29.8876 30.3414 29.9019V29.9019ZM41.9465 39.4443C40.7116 39.4551 39.4789 39.3356 38.2689 39.0877C39.2228 40.5141 40.4005 42.2972 41.5583 44.1L42.4926 45.5132C43.1504 43.9481 44.157 41.2934 44.9793 39.0547C44.0383 39.3246 43.0633 39.4558 42.0847 39.4443H41.9465ZM31.4204 45.3349V46.8868H32.4796V43.75L31.4598 45.2887L31.4204 45.3349ZM39.8544 46.8868H40.8676L39.8544 45.3481V46.8868ZM40.907 46.9462V46.8868H40.8676L40.907 46.9462ZM33.5124 46.8868H34.5716V42.6406H33.5124V46.8868ZM37.7426 42.6406V46.8868H38.7953V43.75L38.0584 42.6406H37.7426ZM35.6243 46.8868H36.6834V42.6406H35.6243V46.8868Z" fill="#424759"/>
<path d="M30.3416 29.9019C29.8495 29.898 29.3589 29.9556 28.8811 30.0736C32.5192 30.8726 34.4336 34.3066 34.5718 35.2047L35.0455 34.8349L35.6244 33.0849C35.1238 32.1154 34.3648 31.3044 33.432 30.7424C32.4993 30.1804 31.4294 29.8894 30.3416 29.9019V29.9019ZM40.9072 29.9019C40.6009 29.902 40.2952 29.9263 39.9928 29.9745C43.019 31.3283 43.894 36.083 44.0519 37.1132C45.1177 36.8689 46.19 36.3406 46.19 35.2047C46.19 32.9528 44.7426 29.9019 40.9072 29.9019V29.9019Z" fill="#262835"/>
<path d="M37.7426 40.5075H33.5125V30.7604L34.1703 31.282C34.6006 31.5444 35.0945 31.6832 35.5979 31.6832C36.1014 31.6832 36.5952 31.5444 37.0256 31.282L37.7295 30.7405L37.7426 40.5075Z" fill="#4E5360"/>
<path d="M51.4597 33.4679L51.4137 33.3292V33.2764C51.4137 33.1972 51.3676 33.1113 51.3347 33.0056C51.3319 32.9904 51.3319 32.9747 51.3347 32.9594C51.3347 32.867 51.2755 32.7679 51.2426 32.6556C51.2097 32.5434 51.2426 32.5962 51.2426 32.5566L51.111 32.1207V32.0877C51.065 31.9424 51.0255 31.7905 50.9794 31.6321C50.9611 31.5802 50.9457 31.5272 50.9334 31.4736C50.8939 31.3349 50.8479 31.183 50.8084 31.0311L50.7689 30.9122L50.611 30.3179L50.5716 30.1792C50.5321 30.0141 50.486 29.849 50.44 29.6773C50.44 29.6179 50.4071 29.5585 50.394 29.499C50.3348 29.2811 50.2821 29.0632 50.2295 28.8387V28.799C50.1834 28.5943 50.1308 28.3896 50.0847 28.1849C50.0733 28.1202 50.0579 28.0562 50.0387 27.9934C49.7682 26.8808 49.5726 25.7512 49.4532 24.6123C49.4437 24.5173 49.4215 24.424 49.3874 24.3349C49.3596 24.0094 49.3046 23.6869 49.2229 23.3707C48.6861 20.7338 47.2606 18.3631 45.1865 16.6576C43.1123 14.952 40.5162 14.0158 37.835 14.0066C41.4928 15.149 44.9467 17.4405 45.973 20.5707C46.0392 20.7956 46.0517 21.033 46.0094 21.2637C45.9671 21.4943 45.8713 21.7117 45.7297 21.8983C45.5881 22.0848 45.4046 22.2352 45.1943 22.3373C44.984 22.4394 44.7526 22.4903 44.519 22.4858C40.8283 22.4858 41.1441 22.4462 37.835 23.549V28.8321C39.5264 28.2164 41.3007 27.8602 43.098 27.7755H43.7559C44.8283 27.8613 46.8611 28.1255 48.4532 31.3349C48.7383 31.9089 48.9823 32.5025 49.1834 33.1113L51.5255 33.5207L51.4597 33.4679Z" fill="#191B23"/>
<path d="M34.5718 33.0849V34.1415H36.6836V33.0849H34.5718ZM34.5718 36.2613H36.6836V35.2047H34.5718V36.2613Z" fill="#14161E"/>
<path d="M29.2889 45.8104C29.0792 45.8091 28.8737 45.8703 28.6987 45.9863C28.5236 46.1024 28.3868 46.268 28.3057 46.4621C28.2245 46.6563 28.2026 46.8702 28.2427 47.0769C28.2828 47.2836 28.3832 47.4737 28.531 47.623C28.6789 47.7724 28.8676 47.8743 29.0732 47.9158C29.2789 47.9574 29.4922 47.9367 29.6861 47.8565C29.88 47.7762 30.0459 47.6399 30.1625 47.4649C30.2792 47.29 30.3415 47.0841 30.3415 46.8736C30.3415 46.5927 30.2308 46.3233 30.0336 46.1241C29.8364 45.9249 29.5687 45.8121 29.2889 45.8104V45.8104ZM35.6243 37.3245C35.0653 37.328 34.5302 37.5524 34.1349 37.9492C33.7396 38.346 33.516 38.8832 33.5125 39.4443V41.6038H37.7427V39.4774C37.7453 39.1961 37.6925 38.9172 37.5873 38.6565C37.482 38.3959 37.3265 38.1587 37.1297 37.9586C36.9328 37.7585 36.6984 37.5995 36.4401 37.4907C36.1817 37.3818 35.9045 37.3254 35.6243 37.3245V37.3245ZM41.9663 45.8104C41.7589 45.8169 41.558 45.8844 41.3885 46.0045C41.219 46.1246 41.0883 46.2921 41.0128 46.4861C40.9372 46.68 40.9202 46.892 40.9636 47.0957C41.0071 47.2994 41.1092 47.4858 41.2572 47.6317C41.4053 47.7776 41.5927 47.8767 41.7964 47.9166C42.0001 47.9565 42.2109 47.9355 42.4028 47.8561C42.5946 47.7768 42.7591 47.6426 42.8756 47.4703C42.9922 47.298 43.0557 47.0951 43.0584 46.8868C43.0602 46.7432 43.0331 46.6008 42.9786 46.4681C42.9241 46.3353 42.8434 46.215 42.7414 46.1144C42.6393 46.0139 42.5181 45.9351 42.3849 45.8828C42.2516 45.8305 42.1093 45.8059 41.9663 45.8104V45.8104Z" fill="#C4C9E7"/>
<path d="M36.6834 12.9302H34.5716C34.2907 12.9302 34.0213 13.0422 33.8227 13.2416C33.624 13.441 33.5124 13.7114 33.5124 13.9934V28.8387H37.7426V13.9934C37.7426 13.7114 37.631 13.441 37.4324 13.2416C37.2337 13.0422 36.9643 12.9302 36.6834 12.9302V12.9302ZM26.8152 22.4726C27.9365 22.4233 29.06 22.4542 30.177 22.5651C30.3262 22.5868 30.4784 22.5762 30.6232 22.5337C30.768 22.4913 30.902 22.4182 31.0162 22.3192C31.1303 22.2203 31.222 22.0979 31.2849 21.9603C31.3478 21.8227 31.3806 21.6731 31.3809 21.5217V16.2387C31.3817 16.0874 31.343 15.9385 31.2686 15.807C31.1942 15.6754 31.0867 15.5657 30.9569 15.4889C30.827 15.412 30.6794 15.3707 30.5287 15.369C30.378 15.3673 30.2295 15.4053 30.098 15.4792C27.9073 16.7075 26.1178 18.3915 25.3942 20.4585C25.3192 20.6869 25.2992 20.93 25.3361 21.1677C25.373 21.4054 25.4656 21.6309 25.6063 21.8256C25.747 22.0203 25.9317 22.1788 26.1453 22.2878C26.3589 22.3968 26.5953 22.4534 26.8349 22.4528L26.8152 22.4726ZM29.2888 39.4443H29.1375C28.1589 39.4563 27.1837 39.3251 26.2428 39.0547C27.0586 41.2934 28.1047 43.9481 28.7231 45.5132L29.6638 44.1C30.8546 42.2972 32.0322 40.5141 32.9861 39.0877C31.7761 39.3355 30.5435 39.4551 29.3085 39.4443H29.2888ZM22.0521 33.1179C22.1442 32.8207 22.2495 32.5632 22.3548 32.299L22.4732 32.0085C24.5718 27.1283 28.0651 27.7689 28.1573 27.7821C29.2269 27.8008 30.2908 27.9426 31.3283 28.2047V25.8009C31.3299 25.5401 31.2354 25.2879 31.063 25.0929C30.8905 24.8978 30.6522 24.7737 30.3941 24.7443C29.6514 24.6584 28.9048 24.6099 28.1573 24.599C22.8942 24.599 21.5324 26.6396 21.2824 27.7821C20.9008 29.4792 20.4074 31.2028 20.0785 32.3122C19.6377 33.4151 19.1574 34.5773 18.6838 35.733C16.5851 40.7783 14.4207 45.9953 14.4207 48.9934C14.4927 49.8387 14.8861 50.6238 15.5193 51.1858C16.6904 52.3811 19.0916 53.7151 23.9665 54.5472C23.9491 54.4645 23.9381 54.3806 23.9337 54.2962L24.0915 54.1245C17.118 52.2689 16.5391 48.9604 16.5325 48.934C16.5325 46.4179 18.7101 41.1745 20.6311 36.5453C21.2034 35.3434 21.6771 34.2009 22.1048 33.1179H22.0521Z" fill="#424759"/>
<path d="M49.9004 27.7821C49.6438 26.6396 48.3083 24.5991 43.0255 24.5991C41.249 24.629 39.4822 24.8706 37.7625 25.3189V28.8387C39.4505 28.2107 41.2267 27.8541 43.0255 27.7821C43.1242 27.7821 46.9728 26.983 49.1306 33.1179L51.4727 33.5274C51.4727 33.5274 50.5385 30.6085 49.9004 27.7821Z" fill="#262835"/>
<path d="M58.3214 42.2641L54.5188 28.9377H57.5911L59.7884 38.183H59.8937L62.3213 28.9377H64.9529L67.4002 38.1896H67.512L69.7093 28.9113H72.7816L68.9462 42.2641H66.2094L63.6831 33.5472H63.5779L61.0582 42.2641H58.3214Z" fill="#262835"/>
<path d="M75.479 42.4358C74.5583 42.4599 73.6485 42.2316 72.8475 41.7754C72.1192 41.3498 71.5296 40.7213 71.1501 39.966C70.7559 39.1194 70.5515 38.1963 70.5515 37.2618C70.5515 36.3272 70.7559 35.4041 71.1501 34.5575C71.5258 33.7996 72.1163 33.17 72.8475 32.7481C73.6517 32.323 74.547 32.1008 75.456 32.1008C76.3649 32.1008 77.2602 32.323 78.0645 32.7481C78.7925 33.174 79.382 33.8025 79.7618 34.5575C80.1517 35.4053 80.3537 36.328 80.3537 37.2618C80.3537 38.1956 80.1517 39.1182 79.7618 39.966C79.3784 40.7185 78.7897 41.346 78.0645 41.7754C77.2762 42.2217 76.3839 42.4496 75.479 42.4358V42.4358ZM75.479 40.283C75.8974 40.2995 76.3073 40.1608 76.6303 39.8934C76.9532 39.6026 77.1938 39.2312 77.3277 38.817C77.6436 37.8044 77.6436 36.7191 77.3277 35.7066C77.194 35.2904 76.9535 34.9168 76.6303 34.6236C76.3079 34.3543 75.8982 34.2133 75.479 34.2273C75.056 34.2143 74.6425 34.355 74.3145 34.6236C73.9873 34.9146 73.7441 35.2887 73.6106 35.7066C73.2947 36.7191 73.2947 37.8044 73.6106 38.817C73.7443 39.2329 73.9875 39.6048 74.3145 39.8934C74.6468 40.1626 75.0655 40.3011 75.4921 40.283H75.479Z" fill="#262835"/>
<path d="M84.5446 42.4358C83.624 42.4599 82.7142 42.2316 81.9131 41.7754C81.1849 41.3498 80.5952 40.7213 80.2158 39.966C79.8215 39.1194 79.6172 38.1963 79.6172 37.2618C79.6172 36.3272 79.8215 35.4041 80.2158 34.5575C80.5914 33.7996 81.182 33.17 81.9131 32.7481C82.7174 32.323 83.6127 32.1008 84.5216 32.1008C85.4306 32.1008 86.3258 32.323 87.1301 32.7481C87.8598 33.1719 88.4499 33.8009 88.8275 34.5575C89.2174 35.4053 89.4193 36.328 89.4193 37.2618C89.4193 38.1956 89.2174 39.1182 88.8275 39.966C88.4461 40.72 87.857 41.3481 87.1301 41.7754C86.3421 42.2223 85.4496 42.4503 84.5446 42.4358V42.4358ZM84.5446 40.283C84.9631 40.2995 85.3729 40.1608 85.6959 39.8934C86.0211 39.6045 86.2621 39.2325 86.3933 38.817C86.7092 37.8044 86.7092 36.7191 86.3933 35.7066C86.2622 35.2891 86.0213 34.9149 85.6959 34.6236C85.3735 34.3543 84.9638 34.2133 84.5446 34.2273C84.1235 34.2135 83.7118 34.3544 83.3868 34.6236C83.0553 34.9122 82.8095 35.2869 82.6762 35.7066C82.3603 36.7191 82.3603 37.8044 82.6762 38.817C82.8096 39.2347 83.0555 39.6072 83.3868 39.8934C83.7158 40.1638 84.1329 40.3026 84.5578 40.283H84.5446Z" fill="#262835"/>
<path d="M89.1104 42.2641V28.9113H91.8735V42.2641H89.1104ZM91.6103 39.3849V36.083H92.0116L95.2024 32.2858H98.3734L94.0905 37.3113H93.4326L91.6103 39.3849ZM95.3339 42.2641L92.3998 37.8858L94.2352 35.9047L98.5641 42.2179L95.3339 42.2641Z" fill="#262835"/>
<path d="M98.9784 30.9519C98.588 30.9568 98.2109 30.8101 97.9258 30.5424C97.787 30.4167 97.6765 30.2628 97.6016 30.0908C97.5267 29.9189 97.4892 29.7329 97.4916 29.5453C97.4911 29.3598 97.5295 29.1764 97.6043 29.0069C97.6791 28.8373 97.7887 28.6855 97.9258 28.5613C98.2129 28.2939 98.59 28.1454 98.9817 28.1454C99.3733 28.1454 99.7505 28.2939 100.038 28.5613C100.175 28.6855 100.284 28.8373 100.359 29.0069C100.434 29.1764 100.472 29.3598 100.472 29.5453C100.474 29.7329 100.437 29.9189 100.362 30.0908C100.287 30.2628 100.176 30.4167 100.038 30.5424C99.7508 30.8117 99.371 30.9585 98.9784 30.9519V30.9519ZM97.5968 42.2641V32.2396H100.36V42.2641H97.5968Z" fill="#262835"/>
<path d="M104.965 42.4358C104.049 42.4586 103.142 42.2424 102.334 41.8085C101.602 41.3944 101.009 40.7716 100.63 40.0188C100.235 39.1665 100.031 38.2379 100.031 37.2981C100.031 36.3582 100.235 35.4297 100.63 34.5773C101.006 33.8225 101.591 33.1921 102.314 32.7613C103.089 32.3123 103.972 32.0839 104.867 32.1009C105.492 32.097 106.113 32.202 106.702 32.4113C107.262 32.618 107.771 32.9422 108.195 33.3622C108.638 33.8115 108.977 34.3525 109.189 34.9471C109.439 35.6617 109.559 36.4155 109.544 37.1726V37.9387H101.13V36.2151H106.939C106.947 35.8456 106.856 35.4808 106.676 35.1585C106.512 34.8542 106.265 34.6024 105.965 34.4321C105.642 34.2506 105.276 34.1594 104.906 34.1679C104.514 34.1613 104.127 34.2617 103.788 34.4585C103.474 34.6446 103.215 34.9113 103.038 35.2311C102.854 35.56 102.756 35.9304 102.755 36.3075V37.9453C102.744 38.3883 102.839 38.8274 103.031 39.2264C103.207 39.5732 103.479 39.862 103.814 40.0585C104.18 40.2617 104.593 40.3621 105.011 40.349C105.297 40.3534 105.581 40.311 105.853 40.2236C106.099 40.1406 106.323 40.0054 106.511 39.8273C106.697 39.641 106.838 39.4154 106.926 39.167L109.478 39.332C109.361 39.9295 109.089 40.4854 108.689 40.9434C108.266 41.4185 107.736 41.7852 107.143 42.0132C106.45 42.2916 105.711 42.435 104.965 42.4358V42.4358Z" fill="#262835"/>
<path d="M111.544 42.2642H108.538L113.143 28.9377H116.741L121.347 42.2642H118.333L115.044 31.9821H114.939L111.544 42.2642ZM111.36 37.0274H118.465V39.2264H111.36V37.0274Z" fill="#262835"/>
<path d="M120.774 42.2641V28.9113H126.037C126.929 28.885 127.813 29.0825 128.61 29.4858C129.295 29.8452 129.86 30.3986 130.235 31.0774C130.618 31.8 130.811 32.6095 130.794 33.4283C130.81 34.2465 130.613 35.0547 130.221 35.7726C129.838 36.4503 129.263 36.9993 128.57 37.3509C127.752 37.7538 126.849 37.9488 125.939 37.9189H122.597V35.6604H125.485C125.939 35.6726 126.391 35.5752 126.8 35.3764C127.139 35.202 127.417 34.9278 127.596 34.5906C127.773 34.2292 127.861 33.8307 127.853 33.4283C127.862 33.0257 127.774 32.6269 127.596 32.266C127.419 31.9291 127.14 31.6566 126.8 31.4868C126.378 31.2929 125.916 31.2002 125.452 31.216H123.557V42.2641H120.774Z" fill="#262835"/>
<path d="M133.274 28.9113V42.2641H130.465V28.9113H133.274Z" fill="#262835"/>
</g>
<defs>
<clipPath id="clip0_5_167">
<rect width="158.491" height="70" rx="9" fill="white"/>
</clipPath>
</defs>
</svg>
